<svg xmlns="http://www.w3.org/2000/svg" width="32" height="32" fill="none" viewBox="0 0 32 32"><g clip-path="url(#clip0_406_401)"><g clip-path="url(#clip1_406_401)"><path fill="#FF6551" d="M1.71436 20.0001C1.71436 20.3156 1.97021 20.5715 2.28578 20.5715H29.7144C30.0299 20.5715 30.2858 20.3156 30.2858 20.0001V2.28577H1.71436V20.0001Z"/><path fill="#FF6551" d="M31.4286 0H0.571429C0.255859 0 0 0.255859 0 0.571429C0 0.886998 0.255859 1.14286 0.571429 1.14286H31.4286C31.7441 1.14286 32 0.886998 32 0.571429C32 0.255859 31.7441 0 31.4286 0Z"/><path fill="#FF6551" d="M20.5715 29.7142H16.5715V22.8571H17.1429C17.4585 22.8571 17.7144 22.6012 17.7144 22.2857V21.7142H14.2858V22.2857C14.2858 22.6012 14.5416 22.8571 14.8572 22.8571H15.4286V29.7142H11.4286C10.4819 29.7142 9.71436 30.4818 9.71436 31.4285V32H22.2858V31.4285C22.2858 30.4818 21.5182 29.7142 20.5715 29.7142Z"/></g></g><defs><clipPath id="clip0_406_401"><rect width="32" height="32" fill="#fff"/></clipPath><clipPath id="clip1_406_401"><rect width="32" height="32" fill="#fff"/></clipPath></defs></svg>