<svg xmlns="http://www.w3.org/2000/svg" width="32" height="32" fill="none" viewBox="0 0 32 32"><g clip-path="url(#clip0_408_5)"><g clip-path="url(#clip1_408_5)"><path fill="#FF6551" d="M13.5947 12.4945C13.6323 12.4649 13.6716 12.4383 13.7105 12.4103C13.8096 12.3389 13.9131 12.2744 14.0207 12.2171C14.0629 12.194 14.1038 12.171 14.1472 12.1506C15.1515 11.6629 16.3506 11.8273 17.1867 12.567C17.2308 12.6054 17.2668 12.6491 17.3085 12.6897C17.3925 12.7707 17.4716 12.8566 17.5451 12.9471C17.5868 12.9993 17.6217 13.0556 17.6576 13.1107C17.7175 13.1975 17.7726 13.2875 17.8223 13.3805C17.8544 13.4412 17.8824 13.5029 17.9099 13.5661C17.951 13.6602 17.9867 13.7568 18.0172 13.8548C18.0375 13.9207 18.0567 13.9855 18.0735 14.0521C18.0965 14.1545 18.1138 14.2577 18.1253 14.362C18.133 14.4271 18.1426 14.4913 18.1459 14.5569C18.15 14.6713 18.147 14.7858 18.1371 14.9C18.133 14.956 18.1336 15.0122 18.1264 15.0685C18.1036 15.2326 18.0658 15.3946 18.0139 15.5518C18.0139 15.5603 18.0112 15.5683 18.0084 15.5765L19.5177 16.448L22.3282 11.5756L6.7539 2.58191L3.94336 7.45369L13.2417 12.8212C13.3496 12.7023 13.4679 12.5931 13.5947 12.4945Z"/><path fill="#FF6551" d="M1.1543 7.78827L5.65116 0L6.62414 0.561834L2.12728 8.3501L1.1543 7.78827Z"/><path fill="#FF6551" d="M26.4883 17.8722L27.0507 16.8981L30.9448 19.1465L30.3824 20.1206L26.4883 17.8722Z"/><path fill="#FF6551" d="M21.0586 16.0341L22.7449 13.114L26.639 15.3627L24.9527 18.2828L21.0586 16.0341Z"/><path fill="#FF6551" d="M16.6702 15.9646C16.6444 15.9171 16.6118 15.8738 16.5731 15.8359C16.6617 15.7439 16.7394 15.6418 16.8042 15.5318C17.2683 14.7249 16.9941 13.6948 16.1902 13.2254C16.0746 13.1607 15.9517 13.1099 15.8243 13.0737C15.7867 13.0624 15.748 13.0555 15.712 13.047C15.6196 13.027 15.5254 13.0146 15.431 13.01C15.3904 13.01 15.3506 13.005 15.31 13.0061C15.1757 13.0092 15.0423 13.0281 14.9125 13.0624C14.3397 13.2131 13.8888 13.6553 13.7271 14.2253C13.5654 14.7954 13.7169 15.4083 14.1256 15.8375C14.0872 15.8749 14.0548 15.9177 14.029 15.9646L6.41229 31.1863C6.27369 31.4643 6.38649 31.8019 6.66425 31.9408C6.94201 32.0794 7.27988 31.9669 7.41849 31.6888L14.7849 16.9505V31.4377C14.7849 31.7481 15.0366 31.9998 15.347 31.9998C15.6574 31.9998 15.9091 31.7481 15.9091 31.4377V16.9549L23.2728 31.6888C23.4117 31.9669 23.7493 32.0794 24.0273 31.9408C24.3051 31.8019 24.4179 31.4643 24.279 31.1863L16.6702 15.9646Z"/></g></g><defs><clipPath id="clip0_408_5"><rect width="32" height="32" fill="#fff"/></clipPath><clipPath id="clip1_408_5"><rect width="32" height="32" fill="#fff"/></clipPath></defs></svg>