<svg width="48" height="48" viewBox="0 0 48 48" fill="none" xmlns="http://www.w3.org/2000/svg">
<g clip-path="url(#clip0_409_958)">
<g clip-path="url(#clip1_409_958)">
<path d="M28.5001 29.25V21.75H19.5001V29.25L8.70007 43.65C7.58782 45.1335 8.64607 47.25 10.5001 47.25H37.5001C39.3541 47.25 40.4123 45.1335 39.3001 43.65L28.5001 29.25Z" fill="#6FA4D8"/>
</g>
<g clip-path="url(#clip2_409_958)">
<path d="M39.3 43.65L28.5 29.25V21.75H24H19.5V23.625H22.875C23.496 23.625 24 24.129 24 24.75V29.25L30 47.25H37.5C39.354 47.25 40.4123 45.1335 39.3 43.65Z" fill="#5C76B2"/>
</g>
<g clip-path="url(#clip3_409_958)">
<path d="M28.5 21.75H19.5C18.6712 21.75 18 21.0788 18 20.25C18 19.4212 18.6712 18.75 19.5 18.75H28.5C29.3287 18.75 30 19.4212 30 20.25C30 21.0788 29.3287 21.75 28.5 21.75Z" fill="#6FA4D8"/>
</g>
<g clip-path="url(#clip4_409_958)">
<path d="M28.5 18.75H24C24.8287 18.75 25.5 19.4212 25.5 20.25C25.5 21.0788 24.8287 21.75 24 21.75H28.5C29.3287 21.75 30 21.0788 30 20.25C30 19.4212 29.3287 18.75 28.5 18.75Z" fill="#5C76B2"/>
</g>
<g clip-path="url(#clip5_409_958)">
<path d="M36 44.25H12L17.625 36.7501L17.6257 36.7493C19.2187 34.6238 22.407 34.6231 24.0007 36.7478L24.0015 36.7486C25.5952 38.8726 28.7805 38.8733 30.375 36.7501L36 44.25Z" fill="#F68820"/>
</g>
<g clip-path="url(#clip6_409_958)">
<path d="M30.375 36.7501L30.3743 36.7493C28.7813 34.6238 25.593 34.6231 23.9993 36.7478L23.9985 36.7486C22.4047 38.8726 19.2195 38.8733 17.625 36.7501L12 44.25H36L30.375 36.7501Z" fill="#FBBE18"/>
</g>
<g clip-path="url(#clip7_409_958)">
<path d="M30.3751 36.75L30.3743 36.7493C29.3168 35.3378 27.5573 34.869 26.0273 35.3318L29.0003 44.25H36.0001L30.3751 36.75Z" fill="#F68820"/>
</g>
<g clip-path="url(#clip8_409_958)">
<path d="M21.375 41.625C21.9963 41.625 22.5 41.1213 22.5 40.5C22.5 39.8787 21.9963 39.375 21.375 39.375C20.7537 39.375 20.25 39.8787 20.25 40.5C20.25 41.1213 20.7537 41.625 21.375 41.625Z" fill="#F68820"/>
</g>
<g clip-path="url(#clip9_409_958)">
<path d="M18.75 43.125C19.1642 43.125 19.5 42.7892 19.5 42.375C19.5 41.9608 19.1642 41.625 18.75 41.625C18.3358 41.625 18 41.9608 18 42.375C18 42.7892 18.3358 43.125 18.75 43.125Z" fill="#F68820"/>
</g>
<g clip-path="url(#clip10_409_958)">
<path d="M20.25 14.25C22.3211 14.25 24 12.5711 24 10.5C24 8.42893 22.3211 6.75 20.25 6.75C18.1789 6.75 16.5 8.42893 16.5 10.5C16.5 12.5711 18.1789 14.25 20.25 14.25Z" fill="#F68820"/>
</g>
<g clip-path="url(#clip11_409_958)">
<path d="M19.125 10.5C19.7463 10.5 20.25 9.99632 20.25 9.375C20.25 8.75368 19.7463 8.25 19.125 8.25C18.5037 8.25 18 8.75368 18 9.375C18 9.99632 18.5037 10.5 19.125 10.5Z" fill="#FBBE18"/>
</g>
<g clip-path="url(#clip12_409_958)">
<path d="M27.75 17.25C28.9926 17.25 30 16.2426 30 15C30 13.7574 28.9926 12.75 27.75 12.75C26.5074 12.75 25.5 13.7574 25.5 15C25.5 16.2426 26.5074 17.25 27.75 17.25Z" fill="#F68820"/>
</g>
<g clip-path="url(#clip13_409_958)">
<path d="M27 15C27.4142 15 27.75 14.6642 27.75 14.25C27.75 13.8358 27.4142 13.5 27 13.5C26.5858 13.5 26.25 13.8358 26.25 14.25C26.25 14.6642 26.5858 15 27 15Z" fill="#FBBE18"/>
</g>
<g clip-path="url(#clip14_409_958)">
<path d="M30.9375 1.6875C30.9375 2.205 30 3.75 30 3.75C30 3.75 29.0625 2.205 29.0625 1.6875C29.0625 1.17 29.4825 0.75 30 0.75C30.5175 0.75 30.9375 1.17 30.9375 1.6875Z" fill="#F68820"/>
</g>
<g clip-path="url(#clip15_409_958)">
<path d="M27.3834 2.65648C27.8319 2.91598 28.7012 4.49998 28.7012 4.49998C28.7012 4.49998 26.8944 4.53973 26.4459 4.28098C25.9982 4.02148 25.8444 3.44848 26.1032 2.99998C26.3619 2.55148 26.9357 2.39773 27.3834 2.65648Z" fill="#F68820"/>
</g>
<g clip-path="url(#clip16_409_958)">
<path d="M26.4462 6.21901C26.8947 5.96026 28.7014 6.00001 28.7014 6.00001C28.7014 6.00001 27.8322 7.58401 27.3837 7.84351C26.9352 8.10226 26.3622 7.94851 26.1027 7.50001C25.8447 7.05151 25.9984 6.47851 26.4462 6.21901Z" fill="#F68820"/>
</g>
<g clip-path="url(#clip17_409_958)">
<path d="M29.0625 8.8125C29.0625 8.295 30 6.75 30 6.75C30 6.75 30.9375 8.295 30.9375 8.8125C30.9375 9.33 30.5175 9.75 30 9.75C29.4825 9.75 29.0625 9.33 29.0625 8.8125Z" fill="#F68820"/>
</g>
<g clip-path="url(#clip18_409_958)">
<path d="M32.6166 7.84351C32.1681 7.58401 31.2988 6.00001 31.2988 6.00001C31.2988 6.00001 33.1056 5.96026 33.5541 6.21901C34.0026 6.47776 34.1563 7.05151 33.8976 7.50001C33.6381 7.94851 33.0643 8.10226 32.6166 7.84351Z" fill="#F68820"/>
</g>
<g clip-path="url(#clip19_409_958)">
<path d="M33.5541 4.28097C33.1056 4.53972 31.2988 4.49997 31.2988 4.49997C31.2988 4.49997 32.1681 2.91597 32.6166 2.65647C33.0651 2.39697 33.6381 2.55147 33.8968 2.99997C34.1556 3.44847 34.0018 4.02147 33.5541 4.28097Z" fill="#F68820"/>
</g>
</g>
<defs>
<clipPath id="clip0_409_958">
<rect width="31.508" height="46.5" fill="white" transform="translate(8.24609 0.75)"/>
</clipPath>
<clipPath id="clip1_409_958">
<rect width="31.5079" height="25.5" fill="white" transform="translate(8.24609 21.75)"/>
</clipPath>
<clipPath id="clip2_409_958">
<rect width="20.254" height="25.5" fill="white" transform="translate(19.5 21.75)"/>
</clipPath>
<clipPath id="clip3_409_958">
<rect width="12" height="3" fill="white" transform="translate(18 18.75)"/>
</clipPath>
<clipPath id="clip4_409_958">
<rect width="6" height="3" fill="white" transform="translate(24 18.75)"/>
</clipPath>
<clipPath id="clip5_409_958">
<rect width="24" height="9.09534" fill="white" transform="translate(12 35.1547)"/>
</clipPath>
<clipPath id="clip6_409_958">
<rect width="24" height="9.09534" fill="white" transform="translate(12 35.1547)"/>
</clipPath>
<clipPath id="clip7_409_958">
<rect width="9.97275" height="9.09048" fill="white" transform="translate(26.0273 35.1595)"/>
</clipPath>
<clipPath id="clip8_409_958">
<rect width="2.25" height="2.25" fill="white" transform="translate(20.25 39.375)"/>
</clipPath>
<clipPath id="clip9_409_958">
<rect width="1.5" height="1.5" fill="white" transform="translate(18 41.625)"/>
</clipPath>
<clipPath id="clip10_409_958">
<rect width="7.5" height="7.5" fill="white" transform="translate(16.5 6.75)"/>
</clipPath>
<clipPath id="clip11_409_958">
<rect width="2.25" height="2.25" fill="white" transform="translate(18 8.25)"/>
</clipPath>
<clipPath id="clip12_409_958">
<rect width="4.5" height="4.5" fill="white" transform="translate(25.5 12.75)"/>
</clipPath>
<clipPath id="clip13_409_958">
<rect width="1.5" height="1.5" fill="white" transform="translate(26.25 13.5)"/>
</clipPath>
<clipPath id="clip14_409_958">
<rect width="1.875" height="3" fill="white" transform="translate(29.0625 0.75)"/>
</clipPath>
<clipPath id="clip15_409_958">
<rect width="2.72365" height="1.97133" fill="white" transform="translate(25.9775 2.53085)"/>
</clipPath>
<clipPath id="clip16_409_958">
<rect width="2.72388" height="1.97133" fill="white" transform="translate(25.9775 5.99782)"/>
</clipPath>
<clipPath id="clip17_409_958">
<rect width="1.875" height="3" fill="white" transform="translate(29.0625 6.75)"/>
</clipPath>
<clipPath id="clip18_409_958">
<rect width="2.72438" height="1.97133" fill="white" transform="translate(31.2988 5.99782)"/>
</clipPath>
<clipPath id="clip19_409_958">
<rect width="2.72365" height="1.97166" fill="white" transform="translate(31.2988 2.5305)"/>
</clipPath>
</defs>
</svg>
