<svg width="48" height="48" viewBox="0 0 48 48" fill="none" xmlns="http://www.w3.org/2000/svg">
<g clip-path="url(#clip0_409_914)">
<g clip-path="url(#clip1_409_914)">
<path d="M27.0234 16.3028C28.6803 16.3028 30.0234 14.9596 30.0234 13.3028C30.0234 11.6459 28.6803 10.3028 27.0234 10.3028C25.3666 10.3028 24.0234 11.6459 24.0234 13.3028C24.0234 14.9596 25.3666 16.3028 27.0234 16.3028Z" fill="#F68820"/>
</g>
<path d="M43.2235 43.9028L30.0235 26.3025V13.6778C30.0235 12.8498 29.3515 12.1778 28.5235 12.1778C27.6955 12.1778 27.0235 12.8498 27.0235 13.6778V26.3025L13.8235 43.9028C13.3262 44.5658 13.4612 45.5063 14.1235 46.0028C14.3935 46.206 14.7092 46.3028 15.0227 46.3028C15.4787 46.3028 15.9287 46.0958 16.2242 45.7028L27.0242 31.3028V44.8028C27.0242 45.6308 27.6962 46.3028 28.5242 46.3028C29.3522 46.3028 30.0242 45.6308 30.0242 44.8028V31.3028L40.8242 45.7028C41.119 46.095 41.5697 46.3028 42.0257 46.3028C42.3385 46.3028 42.655 46.2053 42.925 46.0028C43.5857 45.5063 43.72 44.5658 43.2235 43.9028V43.9028Z" fill="#55525B"/>
<g clip-path="url(#clip2_409_914)">
<path d="M24.0214 35.8028C23.3951 35.8028 22.7636 35.6071 22.2236 35.2028C20.8976 34.2083 20.6299 32.3281 21.6236 31.0021L26.1236 25.0021C27.1189 23.6768 28.9984 23.4098 30.3236 24.4021C31.6496 25.3966 31.9174 27.2768 30.9236 28.6028L26.4236 34.6028C25.8341 35.3888 24.9334 35.8028 24.0214 35.8028V35.8028Z" fill="#5C76B2"/>
</g>
<g clip-path="url(#clip3_409_914)">
<path d="M33.0256 35.8028C32.1136 35.8028 31.2129 35.3888 30.6234 34.6028L26.1234 28.6028C25.1296 27.2768 25.3981 25.3973 26.7234 24.402C28.0479 23.409 29.9281 23.6753 30.9234 25.002L35.4234 31.002C36.4171 32.328 36.1486 34.2075 34.8234 35.2028C34.2834 35.6078 33.6519 35.8028 33.0256 35.8028V35.8028Z" fill="#5C76B2"/>
</g>
<g clip-path="url(#clip4_409_914)">
<g clip-path="url(#clip5_409_914)">
<path d="M42.531 8.99702L39.5767 8.47577C37.1295 8.04452 34.7955 9.67876 34.3635 12.126C33.9322 14.5733 35.5665 16.9073 38.0137 17.3393L40.968 17.8605C43.4152 18.2918 45.7492 16.6575 46.1812 14.2103C46.6125 11.7623 44.9782 9.42827 42.531 8.99702V8.99702Z" fill="#F68820"/>
</g>
<g clip-path="url(#clip6_409_914)">
<path d="M38.7954 17.4075C41.2807 17.4075 43.2954 15.3928 43.2954 12.9075C43.2954 10.4222 41.2807 8.40753 38.7954 8.40753C36.3101 8.40753 34.2954 10.4222 34.2954 12.9075C34.2954 15.3928 36.3101 17.4075 38.7954 17.4075Z" fill="#FBBE18"/>
</g>
<g clip-path="url(#clip7_409_914)">
<path d="M38.2743 15.8625L27.9341 14.0393L28.9758 8.13077L39.3161 9.95402C40.9481 10.242 42.0371 11.7975 41.7498 13.4295C41.4618 15.06 39.9063 16.1498 38.2743 15.8625Z" fill="#6FA4D8"/>
</g>
<g clip-path="url(#clip8_409_914)">
<path d="M27.9341 14.0385L38.2743 15.8618C39.9063 16.1498 41.4618 15.06 41.7498 13.428L28.4553 11.0843L27.9341 14.0385Z" fill="#5C76B2"/>
</g>
<g clip-path="url(#clip9_409_914)">
<path d="M24.7187 14.9948L14.3784 13.1715L15.9414 4.30803L26.2817 6.13128C28.7289 6.56253 30.3632 8.89653 29.9319 11.3445C29.5007 13.7925 27.1667 15.4268 24.7187 14.9948Z" fill="#6FA4D8"/>
</g>
<g clip-path="url(#clip10_409_914)">
<path d="M14.3784 13.1715L24.7187 14.9947C27.1659 15.426 29.4999 13.7917 29.9319 11.3445L15.1599 8.73975L14.3784 13.1715Z" fill="#5C76B2"/>
</g>
<g clip-path="url(#clip11_409_914)">
<path d="M13.5077 0.833262L10.5534 0.312012C6.47419 -0.407238 2.58469 2.31676 1.86469 6.39601C1.14544 10.4753 3.86944 14.3648 7.94869 15.0848L10.9029 15.606C14.9822 16.3253 18.8724 13.6013 19.5917 9.52201C20.3109 5.44201 17.5869 1.55251 13.5077 0.833262V0.833262Z" fill="#F68820"/>
</g>
<g clip-path="url(#clip12_409_914)">
<path d="M9.25244 15.1986C13.3946 15.1986 16.7524 11.8408 16.7524 7.69862C16.7524 3.55649 13.3946 0.198624 9.25244 0.198624C5.11031 0.198624 1.75244 3.55649 1.75244 7.69862C1.75244 11.8408 5.11031 15.1986 9.25244 15.1986Z" fill="#FBBE18"/>
</g>
<g clip-path="url(#clip13_409_914)">
<path d="M9.25146 13.698C12.5652 13.698 15.2515 11.0117 15.2515 7.69801C15.2515 4.3843 12.5652 1.69801 9.25146 1.69801C5.93776 1.69801 3.25146 4.3843 3.25146 7.69801C3.25146 11.0117 5.93776 13.698 9.25146 13.698Z" fill="#55525B"/>
</g>
<g clip-path="url(#clip14_409_914)">
<path d="M8.49907 1.74455C6.54007 1.9913 4.81507 3.1988 3.91357 4.9553C4.19482 6.0653 5.09632 6.9653 6.29707 7.17755C7.92907 7.46555 9.48457 6.3758 9.77257 4.7438C9.98332 3.54305 9.44632 2.38805 8.49907 1.74455Z" fill="#B3B4B6"/>
</g>
</g>
<g clip-path="url(#clip15_409_914)">
<path d="M30.0234 16.3028C31.6803 16.3028 33.0234 14.9596 33.0234 13.3028C33.0234 11.6459 31.6803 10.3028 30.0234 10.3028C28.3666 10.3028 27.0234 11.6459 27.0234 13.3028C27.0234 14.9596 28.3666 16.3028 30.0234 16.3028Z" fill="#FBBE18"/>
</g>
<g clip-path="url(#clip16_409_914)">
<path d="M30.0234 14.8028C30.8519 14.8028 31.5234 14.1312 31.5234 13.3028C31.5234 12.4743 30.8519 11.8028 30.0234 11.8028C29.195 11.8028 28.5234 12.4743 28.5234 13.3028C28.5234 14.1312 29.195 14.8028 30.0234 14.8028Z" fill="#55525B"/>
</g>
<g clip-path="url(#clip17_409_914)">
<path d="M15.0234 47.8028C16.6803 47.8028 18.0234 46.4596 18.0234 44.8028C18.0234 43.1459 16.6803 41.8028 15.0234 41.8028C13.3666 41.8028 12.0234 43.1459 12.0234 44.8028C12.0234 46.4596 13.3666 47.8028 15.0234 47.8028Z" fill="#F68820"/>
</g>
<g clip-path="url(#clip18_409_914)">
<path d="M42.0234 47.8028C43.6803 47.8028 45.0234 46.4596 45.0234 44.8028C45.0234 43.1459 43.6803 41.8028 42.0234 41.8028C40.3666 41.8028 39.0234 43.1459 39.0234 44.8028C39.0234 46.4596 40.3666 47.8028 42.0234 47.8028Z" fill="#F68820"/>
</g>
<g clip-path="url(#clip19_409_914)">
<path d="M28.5234 47.8028C30.1803 47.8028 31.5234 46.4596 31.5234 44.8028C31.5234 43.1459 30.1803 41.8028 28.5234 41.8028C26.8666 41.8028 25.5234 43.1459 25.5234 44.8028C25.5234 46.4596 26.8666 47.8028 28.5234 47.8028Z" fill="#F68820"/>
</g>
<g clip-path="url(#clip20_409_914)">
<path d="M28.5234 35.8028C26.8667 35.8028 25.5234 34.4595 25.5234 32.8028V26.8028C25.5234 25.146 26.8667 23.8028 28.5234 23.8028C30.1802 23.8028 31.5234 25.146 31.5234 26.8028V32.8028C31.5234 34.4595 30.1802 35.8028 28.5234 35.8028Z" fill="#F68820"/>
</g>
<g clip-path="url(#clip21_409_914)">
<path d="M28.5234 35.8028C26.8667 35.8028 25.5234 34.4595 25.5234 32.8028V26.8028C25.5234 25.146 26.8667 23.8028 28.5234 23.8028C30.1802 23.8028 31.5234 25.146 31.5234 26.8028V32.8028C31.5234 34.4595 30.1802 35.8028 28.5234 35.8028Z" fill="#6FA4D8"/>
</g>
</g>
<defs>
<clipPath id="clip0_409_914">
<rect width="44.501" height="47.6059" fill="white" transform="translate(1.74951 0.196831)"/>
</clipPath>
<clipPath id="clip1_409_914">
<rect width="6" height="6" fill="white" transform="translate(24.0234 10.3028)"/>
</clipPath>
<clipPath id="clip2_409_914">
<rect width="10.5003" height="12.0001" fill="white" transform="translate(21.0234 23.8028)"/>
</clipPath>
<clipPath id="clip3_409_914">
<rect width="10.4999" height="12.0008" fill="white" transform="translate(25.5234 23.8019)"/>
</clipPath>
<clipPath id="clip4_409_914">
<rect width="44.501" height="17.7327" fill="white" transform="translate(1.74951 0.196831)"/>
</clipPath>
<clipPath id="clip5_409_914">
<rect width="11.9558" height="9.5228" fill="white" transform="translate(34.2944 8.40674)"/>
</clipPath>
<clipPath id="clip6_409_914">
<rect width="9" height="8.99999" fill="white" transform="translate(34.2954 8.40753)"/>
</clipPath>
<clipPath id="clip7_409_914">
<rect width="13.8617" height="7.77769" fill="white" transform="translate(27.9341 8.13077)"/>
</clipPath>
<clipPath id="clip8_409_914">
<rect width="13.8158" height="4.82365" fill="white" transform="translate(27.9341 11.0843)"/>
</clipPath>
<clipPath id="clip9_409_914">
<rect width="15.6225" height="10.756" fill="white" transform="translate(14.3784 4.30803)"/>
</clipPath>
<clipPath id="clip10_409_914">
<rect width="15.5535" height="6.32402" fill="white" transform="translate(14.3784 8.73975)"/>
</clipPath>
<clipPath id="clip11_409_914">
<rect width="17.9574" height="15.5244" fill="white" transform="translate(1.74951 0.196831)"/>
</clipPath>
<clipPath id="clip12_409_914">
<rect width="15" height="15" fill="white" transform="translate(1.75244 0.198624)"/>
</clipPath>
<clipPath id="clip13_409_914">
<rect width="12" height="12" fill="white" transform="translate(3.25146 1.69801)"/>
</clipPath>
<clipPath id="clip14_409_914">
<rect width="5.90454" height="5.47916" fill="white" transform="translate(3.91357 1.74455)"/>
</clipPath>
<clipPath id="clip15_409_914">
<rect width="6" height="6" fill="white" transform="translate(27.0234 10.3028)"/>
</clipPath>
<clipPath id="clip16_409_914">
<rect width="3" height="3" fill="white" transform="translate(28.5234 11.8028)"/>
</clipPath>
<clipPath id="clip17_409_914">
<rect width="6" height="6" fill="white" transform="translate(12.0234 41.8028)"/>
</clipPath>
<clipPath id="clip18_409_914">
<rect width="6" height="6" fill="white" transform="translate(39.0234 41.8028)"/>
</clipPath>
<clipPath id="clip19_409_914">
<rect width="6" height="6" fill="white" transform="translate(25.5234 41.8028)"/>
</clipPath>
<clipPath id="clip20_409_914">
<rect width="6" height="12" fill="white" transform="translate(25.5234 23.8028)"/>
</clipPath>
<clipPath id="clip21_409_914">
<rect width="6" height="12" fill="white" transform="translate(25.5234 23.8028)"/>
</clipPath>
</defs>
</svg>
